PathFileType	4	(X/Y/Z)	D:\TRACE\spotREDO_2-26-24\spot_justBody_Motion_3_1-v60.trc
DataRate	CameraRate	NumFrames	NumMarkers	Units	OrigDataRate	OrigDataStartFrame	OrigNumFrames
100.00	100.00	      17	9	mm	100.00	1	      7000
Frame#	Time	front left toe			Front right toe			aft left toe			aft right toe			Arm			FL body			FR body			AL Body			AR Body			
		X1	Y1	Z1	X2	Y2	Z2	X3	Y3	Z3	X4	Y4	Z4	X5	Y5	Z5	X6	Y6	Z6	X7	Y7	Z7	X8	Y8	Z8	X9	Y9	Z9	

1	0.000	-170.69518	52.38880	-144.39658	255.22017	45.38763	-82.60439	-245.68402	-51.45512	432.01413	189.96027	-55.45577	514.58734	67.59920	627.05475	-327.17023	-21.43997	369.97339	-300.06992	133.53200	373.36224	-279.94510	-143.52507	432.91119	573.58459	-3.32900	436.60199	593.29724	
2	0.010	-170.70705	52.32443	-144.37320	255.24811	45.39426	-82.51055	-245.74959	-51.44713	432.12149	190.06310	-55.43878	514.72137	67.43806	630.51007	-324.99359	-21.65081	373.40802	-298.79202	133.65089	376.68011	-278.78653	-143.46364	432.93158	574.90564	-3.37807	436.49347	594.89050	
3	0.020	-170.70564	52.42380	-144.35350	255.19958	45.47504	-82.45473	-245.76181	-51.41989	432.15341	190.06909	-55.45531	514.85486	67.68463	634.22485	-322.59409	-21.96340	376.81134	-297.82629	133.20561	380.09692	-277.15698	-143.75545	433.11893	576.38019	-3.20911	436.41574	596.66498	
4	0.030	-170.72633	52.50802	-144.26785	255.38403	45.53142	-82.35296	-245.76888	-51.39210	432.20270	190.13174	-55.51321	514.98126	67.21721	637.68109	-320.19275	-22.12303	380.42917	-296.67911	132.93161	383.46185	-276.53329	-143.57535	433.12704	577.85773	-3.94477	436.55301	597.70953	
5	0.040	-170.73708	52.36914	-144.21539	255.36159	45.36251	-82.37965	-245.86803	-51.38533	432.24713	190.18602	-55.60966	515.03583	67.41840	641.49292	-317.99136	-21.82367	383.89560	-295.14877	132.93048	386.96451	-274.94443	-143.66570	433.12729	579.38666	-3.58966	436.50790	599.35382	
6	0.050	-170.89348	52.42942	-144.09857	255.30652	45.13064	-82.37193	-245.85448	-51.45872	432.17767	190.21400	-55.80098	515.13232	67.11362	645.32263	-315.62885	-21.92933	387.65338	-293.83029	132.85645	390.52744	-273.76364	-143.72646	433.09860	580.91382	-3.57180	436.42059	600.97217	
7	0.060	-170.84285	52.36361	-144.13208	255.39337	44.96318	-82.26361	-245.80286	-51.47284	432.25131	190.21986	-55.89759	515.22064	66.82381	649.03784	-313.39969	-22.31748	391.46564	-292.73898	132.85728	394.10870	-272.48969	-143.60670	433.20316	582.50580	-3.63815	436.44153	602.37299	
8	0.070	-170.84813	52.47327	-144.12955	255.44543	45.06610	-82.26366	-245.81093	-51.49623	432.27692	190.16011	-55.92778	515.27887	66.47736	652.91772	-311.07159	-22.45260	395.12738	-291.48901	132.94766	397.82883	-271.01196	-143.56477	433.49609	583.94141	-3.68611	436.69556	603.79755	
9	0.080	-170.68898	52.32386	-144.21956	255.43640	44.98583	-82.33727	-245.81490	-51.37923	432.32065	190.33315	-55.93161	515.37354	66.65624	656.77533	-308.49368	-22.30120	398.82495	-289.90427	132.50941	402.78897	-269.68729	-143.59309	433.74969	585.28217	-3.50885	437.00153	605.35205	
10	0.090	-170.67805	52.30009	-144.19014	255.47572	45.02869	-82.29762	-245.82841	-51.42594	432.31180	190.24481	-55.99353	515.43811	66.58191	661.12762	-306.09378	-22.26020	403.08606	-288.54889	132.79626	405.88504	-268.47708	-143.85376	434.35767	586.83539	-3.42427	437.35239	606.86871	
11	0.100	-170.67389	52.45074	-144.27013	255.58788	44.44189	-82.64662	-245.82939	-51.42262	432.35703	190.31482	-56.09317	515.43878	66.28861	665.28479	-303.82806	-22.14681	407.13565	-287.36972	132.59007	409.93616	-267.10019	-143.70770	434.85440	588.10742	-3.54087	437.73233	608.21729	
12	0.110	-170.69640	52.44509	-144.30067	255.58028	44.24200	-82.63287	-245.82161	-51.53744	432.35834	190.31209	-56.18589	515.53009	66.02937	669.65887	-301.36264	-22.27974	411.59070	-286.16754	132.51407	414.26730	-265.77719	-143.58995	435.23090	589.83368	-3.02577	438.26608	609.79974	
13	0.120	-170.66447	52.50026	-144.35863	255.69125	44.10835	-82.55028	-245.68954	-51.68949	432.43512	190.36725	-56.24603	515.61957	66.09966	674.42047	-298.91721	-22.13151	416.00473	-284.51666	132.62408	419.01407	-264.40286	-143.68112	435.92398	591.03473	-3.84135	439.21582	611.38251	
14	0.130	-170.55434	52.64318	-144.41116	255.65642	44.09787	-82.67181	-245.73569	-51.67130	432.40570	190.39783	-56.25928	515.66473	65.60506	679.53607	-296.60156	-22.20267	420.92798	-283.30594	132.65312	423.73792	-263.06671	-143.39911	436.74585	592.64215	-3.97299	439.96368	612.47565	
15	0.140	-170.46028	52.60052	-144.46658	255.69397	44.14713	-82.62246	-245.72444	-51.59560	432.43051	190.47478	-56.25465	515.69916	65.51568	684.41968	-293.90875	-22.35228	425.86206	-282.11237	132.57426	428.66840	-261.83148	-143.40822	437.39508	594.07874	-3.24215	440.72284	614.10468	
16	0.150	-170.45082	52.66731	-144.52513	255.80205	44.13082	-82.64702	-245.71642	-51.52403	432.40100	190.47659	-56.27892	515.70880	65.56907	689.90485	-291.47867	-22.43663	431.15808	-280.70551	132.65866	433.87582	-260.38626	-143.41388	438.59390	595.21124	-3.20901	441.67813	615.70203	
17	0.160	-170.36020	52.70321	-144.60420	255.82143	44.73940	-82.38738	-245.72012	-51.53106	432.39526	190.57800	-56.23792	515.73254	65.07298	695.09387	-288.81403	-22.26502	436.14594	-279.27353	132.81705	439.11673	-259.01102	-143.40280	439.61230	596.59546	-2.89532	442.76447	616.79962	
